<svg xmlns="http://www.w3.org/2000/svg" width="21.818" height="15.455" viewBox="0 0 21.818 15.455">
  <path id="Path_88" data-name="Path 88" d="M8.162,11.992a5.315,5.315,0,0,1,.337-.417Q13.814,6.154,19.129.742A1.574,1.574,0,0,1,20.807.235,1.52,1.52,0,0,1,21.9,1.461a1.636,1.636,0,0,1-.559,1.51c-2.522,2.557-5.035,5.132-7.557,7.7-1.412,1.439-2.815,2.877-4.227,4.307a1.582,1.582,0,0,1-2.362.2C5.063,13.635,2.932,12.1.8,10.545A1.54,1.54,0,0,1,.233,8.662a1.518,1.518,0,0,1,1.634-.95,2.1,2.1,0,0,1,.879.382C4.4,9.266,6.031,10.465,7.674,11.655,7.8,11.744,7.949,11.841,8.162,11.992Z" transform="translate(-0.109 -0.161)" fill="#fff"/>
</svg>
